<svg width="644" height="490" viewBox="0 0 644 490" fill="none" xmlns="http://www.w3.org/2000/svg">
<path d="M332.529 205.882C332.529 205.882 335.17 199.789 338.744 200.982C342.318 202.174 345.49 218.066 332.884 217.233L332.529 205.882Z" fill="#F4A28C"/>
<path d="M314.175 76.636H111.396V282.354H314.175V76.636Z" fill="#24285B"/>
<path d="M235.801 166.91H170.66V174.309H235.801V166.91Z" fill="#F54A4A"/>
<path d="M247.57 146.314H189.336V153.713H247.57V146.314Z" fill="#FFD200"/>
<path d="M275.229 224.371H244.849V231.77H275.229V224.371Z" fill="#FFD200"/>
<path d="M244.543 203.579H214.162V210.978H244.543V203.579Z" fill="#FFD200"/>
<path d="M266.954 184.779H189.336V192.178H266.954V184.779Z" fill="#F54A4A"/>
<path d="M175.683 184.779H146.494V192.178H175.683V184.779Z" fill="white"/>
<path d="M204.76 204.199H175.571V211.598H204.76V204.199Z" fill="white"/>
<path d="M177.1 243.857H147.911V251.256H177.1V243.857Z" fill="white"/>
<path d="M157.007 166.91H127.818V174.309H157.007V166.91Z" fill="white"/>
<path d="M124.678 92.5773C126.572 92.5773 128.108 91.0197 128.108 89.0983C128.108 87.1769 126.572 85.6193 124.678 85.6193C122.784 85.6193 121.249 87.1769 121.249 89.0983C121.249 91.0197 122.784 92.5773 124.678 92.5773Z" fill="white"/>
<path d="M134.886 92.5773C136.78 92.5773 138.315 91.0197 138.315 89.0983C138.315 87.1769 136.78 85.6193 134.886 85.6193C132.992 85.6193 131.457 87.1769 131.457 89.0983C131.457 91.0197 132.992 92.5773 134.886 92.5773Z" fill="#F54A4A"/>
<path d="M144.53 92.5773C146.424 92.5773 147.959 91.0197 147.959 89.0983C147.959 87.1769 146.424 85.6193 144.53 85.6193C142.636 85.6193 141.1 87.1769 141.1 89.0983C141.1 91.0197 142.636 92.5773 144.53 92.5773Z" fill="#FFD200"/>
<path d="M157.007 110.675H127.818V118.074H157.007V110.675Z" fill="white"/>
<path d="M175.683 129.164H146.494V136.563H175.683V129.164Z" fill="white"/>
<path d="M247.57 129.164H189.336V136.563H247.57V129.164Z" fill="#FFD200"/>
<path d="M175.683 146.314H146.494V153.713H175.683V146.314Z" fill="white"/>
<path d="M228.813 110.675H168.68V118.074H228.813V110.675Z" fill="#F54A4A"/>
<path d="M157.828 224.371H128.639V231.77H157.828V224.371Z" fill="white"/>
<path d="M229.634 224.371H169.501V231.77H229.634V224.371Z" fill="#F54A4A"/>
<path d="M248.793 243.824H188.66V251.223H248.793V243.824Z" fill="#F54A4A"/>
<path d="M284.085 110.675H241.387V118.074H284.085V110.675Z" fill="#F54A4A"/>
<path d="M479.12 76.195H382.407V143.652H479.12V76.195Z" fill="#FFD200"/>
<path opacity="0.08" d="M288.882 170.602C288.882 170.602 270.158 175.681 278.385 203.579C286.612 231.476 292.118 275.298 266.954 281.734H321.356L316.896 210.961L288.882 170.602Z" fill="black"/>
<path d="M417.763 123.17C417.261 123.166 416.774 122.994 416.378 122.68L401.888 111.05C401.621 110.843 401.405 110.576 401.257 110.27C401.109 109.964 401.033 109.627 401.035 109.286C401.036 108.945 401.111 108.609 401.256 108.301C401.401 107.993 401.611 107.721 401.872 107.506L416.362 95.6643C416.592 95.4766 416.855 95.3366 417.138 95.2523C417.421 95.168 417.717 95.141 418.01 95.1728C418.303 95.2047 418.587 95.2947 418.846 95.4379C419.104 95.5811 419.333 95.7746 419.518 96.0073C419.703 96.24 419.841 96.5075 419.924 96.7943C420.007 97.0811 420.034 97.3818 420.002 97.679C419.971 97.9763 419.882 98.2644 419.741 98.5268C419.6 98.7893 419.409 99.021 419.18 99.2087L406.863 109.254L419.164 119.054C419.529 119.347 419.795 119.748 419.924 120.202C420.054 120.656 420.041 121.14 419.887 121.586C419.732 122.031 419.445 122.417 419.064 122.69C418.684 122.962 418.229 123.107 417.763 123.104V123.17Z" fill="white"/>
<path d="M310.44 233.42L303.083 273.567H329.905L325.156 233.42H310.44Z" fill="#F4A28C"/>
<path d="M444.022 123.17C443.557 123.169 443.105 123.021 442.727 122.748C442.349 122.474 442.064 122.088 441.912 121.643C441.759 121.198 441.748 120.716 441.878 120.264C442.008 119.811 442.273 119.411 442.637 119.119L454.922 109.319L442.621 99.274C442.392 99.0874 442.201 98.8567 442.059 98.5953C441.918 98.3338 441.828 98.0466 441.796 97.7501C441.764 97.4536 441.79 97.1536 441.872 96.8672C441.954 96.5807 442.091 96.3135 442.275 96.0808C442.459 95.8481 442.686 95.6544 442.944 95.5108C443.202 95.3672 443.485 95.2765 443.777 95.2439C444.069 95.2113 444.365 95.2374 444.647 95.3207C444.93 95.4041 445.193 95.543 445.423 95.7296L459.913 107.571C460.177 107.782 460.391 108.051 460.538 108.358C460.685 108.665 460.761 109.002 460.761 109.343C460.761 109.685 460.685 110.022 460.538 110.329C460.391 110.636 460.177 110.905 459.913 111.116L445.423 122.745C445.015 123.039 444.522 123.189 444.022 123.17Z" fill="white"/>
<path d="M424.815 123.17C424.493 123.169 424.176 123.103 423.881 122.974C423.34 122.721 422.919 122.262 422.711 121.695C422.503 121.129 422.524 120.502 422.77 119.952L433.348 96.4974C433.452 96.2013 433.616 95.9305 433.828 95.702C434.041 95.4736 434.299 95.2924 434.584 95.1701C434.87 95.0478 435.177 94.9869 435.487 94.9914C435.797 94.9958 436.102 95.0655 436.384 95.1961C436.666 95.3266 436.918 95.515 437.124 95.7496C437.331 95.9841 437.487 96.2595 437.583 96.5584C437.679 96.8573 437.712 97.1732 437.682 97.486C437.651 97.7988 437.557 98.1018 437.405 98.3757L426.843 121.847C426.666 122.242 426.381 122.577 426.021 122.812C425.661 123.046 425.242 123.171 424.815 123.17Z" fill="white"/>
<path d="M300.796 197.813C300.796 197.813 295.113 239.332 314.401 243.056C333.689 246.78 336.329 197.813 336.329 197.813C336.329 197.813 339.436 182.835 328.762 173.101C318.088 163.366 295.87 173.035 300.796 197.813Z" fill="#F4A28C"/>
<path d="M300.378 205.882L298.397 200.394C296.957 196.407 295.258 192.522 293.31 188.764C289.88 182.133 284.954 168.887 294.823 160.998C308.379 150.152 312.903 163.938 321.533 153.713C330.163 143.488 342.093 157.241 343.735 162.664C345.377 168.086 356.889 171.843 353.186 183.097C349.483 194.35 349.37 206.127 336.104 204.167C322.837 202.207 308.524 191.41 308.524 191.41C308.524 191.41 304.709 197.388 300.378 205.882Z" fill="#FFD200"/>
<path d="M309.136 222.019C313.2 222.019 316.494 218.677 316.494 214.555C316.494 210.432 313.2 207.09 309.136 207.09C305.072 207.09 301.778 210.432 301.778 214.555C301.778 218.677 305.072 222.019 309.136 222.019Z" fill="white"/>
<path d="M325.349 222.672C329.412 222.672 332.706 219.33 332.706 215.208C332.706 211.086 329.412 207.744 325.349 207.744C321.285 207.744 317.991 211.086 317.991 215.208C317.991 219.33 321.285 222.672 325.349 222.672Z" fill="white"/>
<path d="M241.387 415.798C241.387 415.798 184.731 284.2 303.083 273.567H329.905C329.905 273.567 443.346 290.145 386.899 413.021L241.387 415.798Z" fill="#F54A4A"/>
<path opacity="0.08" d="M264.716 336.483H244.849L260.031 396.622L256.586 415.798L282.491 414.965L289.011 359.497L264.716 336.483Z" fill="black"/>
<path d="M300.378 205.882C300.378 205.882 297.737 199.789 294.163 200.982C290.589 202.174 288.657 218.948 301.279 218.148L300.378 205.882Z" fill="#F4A28C"/>
<path d="M277.661 393.47L261.319 321.505H374.083L355.746 399.121L354.152 414.491H280.639L277.661 393.47Z" fill="#FFD200"/>
<path d="M318.699 365.524C324.097 365.524 328.472 361.085 328.472 355.609C328.472 350.134 324.097 345.695 318.699 345.695C313.302 345.695 308.927 350.134 308.927 355.609C308.927 361.085 313.302 365.524 318.699 365.524Z" fill="white"/>
<path d="M551.328 184.779H386.078V281.734H551.328V184.779Z" fill="#E6E6E6"/>
<path d="M414.301 225.351C419.601 225.351 423.897 220.993 423.897 215.616C423.897 210.24 419.601 205.882 414.301 205.882C409.002 205.882 404.706 210.24 404.706 215.616C404.706 220.993 409.002 225.351 414.301 225.351Z" fill="#24285B"/>
<path d="M414.301 259.259C419.601 259.259 423.897 254.901 423.897 249.524C423.897 244.148 419.601 239.79 414.301 239.79C409.002 239.79 404.706 244.148 404.706 249.524C404.706 254.901 409.002 259.259 414.301 259.259Z" fill="#F54A4A"/>
<path d="M523.089 208.969H436.503V220.81H523.089V208.969Z" fill="#C9C9C9"/>
<path d="M523.089 243.252H436.503V255.094H523.089V243.252Z" fill="#C9C9C9"/>
<path opacity="0.08" d="M309.12 240.704C309.12 240.704 317.17 245.604 323.61 240.312C323.61 240.312 324.061 252.709 307.51 249.524L309.12 240.704Z" fill="black"/>
</svg>
