<svg width="71" height="76" viewBox="0 0 71 76" fill="none" xmlns="http://www.w3.org/2000/svg">
<path d="M35.5 0C15.8939 0 0 17.0132 0 38C0 58.9868 15.8939 76 35.5 76C55.1061 76 71 58.9868 71 38C70.9778 17.0231 55.0969 0.02375 35.5 0ZM35.5 73.4667C17.2009 73.4667 2.36667 57.5877 2.36667 38C2.36667 18.4123 17.2009 2.53333 35.5 2.53333C53.7991 2.53333 68.6333 18.4123 68.6333 38C68.6125 57.5784 53.7903 73.4443 35.5 73.4667Z" fill="#F54A4A"/>
<path d="M35.4999 3.8C17.8544 3.8 3.54993 19.1118 3.54993 38C3.54993 56.8882 17.8544 72.2 35.4999 72.2C53.1455 72.2 67.4499 56.8882 67.4499 38C67.4304 19.1205 53.1374 3.8209 35.4999 3.8ZM35.4999 69.6667C19.1615 69.6667 5.91659 55.489 5.91659 38C5.91659 20.511 19.1615 6.33334 35.4999 6.33334C51.8384 6.33334 65.0833 20.511 65.0833 38C65.0651 55.481 51.8308 69.6472 35.4999 69.6667Z" fill="#F54A4A"/>
<path d="M54.7458 29.5045L35.5 50.1055L16.2543 29.5045L14.5811 31.2955L35.5 53.6877L56.419 31.2955L54.7458 29.5045Z" fill="#F54A4A"/>
</svg>
