<svg width="141" height="103" viewBox="0 0 141 103" fill="none" xmlns="http://www.w3.org/2000/svg">
<path d="M26.5362 37.08C26.471 37.4698 26.5148 37.8695 26.6631 38.237C27.1813 39.8438 31.0412 46.0067 30.9425 41.2C30.9143 39.7752 27.0614 34.9651 26.5362 37.08Z" fill="white"/>
<path d="M30.3151 43.1742C29.0179 43.1742 26.8429 39.3494 26.501 38.2817C26.3424 37.883 26.2973 37.45 26.3706 37.0285C26.5292 36.4002 26.9452 36.3418 27.1849 36.3727C28.5103 36.5135 31.1082 39.9159 31.1364 41.2C31.1646 42.4841 30.9249 43.0849 30.4102 43.1673L30.3151 43.1742ZM26.7125 37.1109C26.6544 37.4703 26.6982 37.8384 26.8394 38.1752C27.273 39.5486 29.4867 42.9476 30.3433 42.8171C30.4772 42.7965 30.7909 42.5939 30.7627 41.2069C30.7381 40.1254 28.2494 36.8431 27.1355 36.7435C26.9875 36.7435 26.8077 36.7435 26.7125 37.1281V37.1109Z" fill="#231F20"/>
<path d="M69.6085 51.6923L44.299 56.2002C44.299 56.2002 36.0963 44.6883 35.839 44.9046C33.3257 46.9646 30.0862 49.5224 30.0862 49.5224C30.0862 49.5224 32.4797 65.0136 38.7154 68.107C44.9511 71.2005 64.4056 63.5922 64.4056 63.5922L69.6085 51.6923Z" fill="#F54A4A"/>
<path d="M90.3283 52.5952L103.635 60.2344L107.865 39.1915L114.404 41.5948C114.404 41.5948 115.663 79.4679 108.517 78.5581C101.372 77.6483 84.2477 67.6985 84.2477 67.6985L90.3283 52.5952Z" fill="#F54A4A"/>
<path d="M69.6083 51.6923C69.6083 51.6923 60.972 51.2494 54.8033 66.6067C48.6345 81.9639 44.3728 91.8622 44.3728 91.8622L83.5003 95.6389C83.5003 95.6389 88.2203 78.4722 90.2613 65.7312C91.2941 59.2765 91.6431 53.9583 90.3388 52.5815C86.4507 48.4958 69.6083 51.6923 69.6083 51.6923Z" fill="#F54A4A"/>
<path d="M84.5613 91.7867H84.5084C84.4624 91.7732 84.4236 91.7426 84.4005 91.7015C84.3775 91.6604 84.3719 91.6121 84.385 91.567L93.3456 61.8721C93.3595 61.8273 93.3909 61.7895 93.4331 61.767C93.4753 61.7446 93.5249 61.7391 93.5712 61.7519C93.5942 61.7582 93.6158 61.769 93.6345 61.7835C93.6533 61.798 93.6689 61.816 93.6803 61.8365C93.6918 61.857 93.699 61.8795 93.7015 61.9027C93.7039 61.9259 93.7015 61.9494 93.6945 61.9717L84.734 91.67C84.7214 91.7046 84.698 91.7346 84.667 91.7555C84.636 91.7765 84.599 91.7874 84.5613 91.7867Z" fill="#231F20"/>
<path d="M45.388 89.61C45.3672 89.6148 45.3454 89.6148 45.3246 89.61C45.2793 89.5931 45.2427 89.5594 45.2229 89.5163C45.2031 89.4732 45.2016 89.4241 45.2188 89.38L57.7396 58.3049C57.7478 58.2827 57.7605 58.2625 57.777 58.2453C57.7935 58.2282 57.8134 58.2145 57.8355 58.2052C57.8577 58.1959 57.8816 58.1911 57.9057 58.1911C57.9298 58.1911 57.9537 58.1959 57.9758 58.2053C58.0202 58.2222 58.0559 58.2555 58.0751 58.298C58.0942 58.3405 58.0953 58.3886 58.078 58.4319L45.5608 89.5104C45.5447 89.5413 45.5199 89.5671 45.4893 89.5847C45.4587 89.6024 45.4236 89.6111 45.388 89.61Z" fill="#231F20"/>
<path d="M64.6274 49.3713C64.6274 49.1619 64.6274 48.9593 64.6274 48.7636C64.5938 48.0451 64.6978 47.3267 64.9341 46.6453C65.3168 45.8662 65.9026 45.1985 66.6331 44.7089C69.5173 42.5741 72.9833 41.3143 76.5983 41.0867C80.2045 40.87 83.8139 41.4571 87.1521 42.8034C88.6938 43.3611 90.1249 44.1742 91.3821 45.2067C92.5192 46.2349 93.3914 47.5097 93.9279 48.9276C94.4644 50.3456 94.6501 51.8668 94.4701 53.3677C94.3467 54.3977 94.2973 56.0698 93.8673 57.0277C93.1129 58.6963 90.8851 58.6379 89.3799 59.0877C87.8748 59.5374 86.6939 60.5846 85.298 61.2575C84.0396 61.8687 82.3335 61.7313 80.9481 61.8343C77.5641 62.0884 73.8699 61.9682 71.0781 60.0902C69.1711 58.8096 68.8398 56.4234 67.7717 54.5797C67.1654 53.5497 66.3617 53.2441 65.5756 52.4957C64.7895 51.7472 64.6309 50.47 64.6274 49.3713Z" fill="#F54A4A"/>
<path d="M72.9181 62.3665C73.0783 62.9319 73.3731 63.4525 73.7785 63.8862C74.184 64.3199 74.6886 64.6543 75.2516 64.8625C75.7989 65.0075 76.3708 65.0428 76.9325 64.966C77.4942 64.8893 78.0341 64.7022 78.5193 64.4162C79.4804 63.8409 80.3183 63.0901 80.9868 62.2051C81.9593 61.0161 82.7786 59.7155 83.4261 58.3323C83.8842 57.4506 84.1574 56.4889 84.2298 55.5033C84.2631 55.0171 84.1855 54.5299 84.0027 54.0764C83.8199 53.6229 83.5363 53.2144 83.1723 52.8802C81.1772 51.2047 75.8051 51.2391 73.9615 53.3883C72.2342 55.4071 72.1919 60.128 72.9181 62.3665Z" fill="#231F20"/>
<path d="M76.2952 65.1956C75.922 65.1972 75.5509 65.1416 75.1954 65.0308C74.6046 64.815 74.0746 64.4661 73.6488 64.0126C73.223 63.5591 72.9135 63.0138 72.7456 62.4214C72.0053 60.1451 72.0617 55.335 73.8277 53.2716C74.642 52.3274 76.1824 51.6991 78.0577 51.5549C80.1727 51.3867 82.2278 51.8571 83.2959 52.7532C83.6796 53.102 83.9794 53.5291 84.1738 54.0039C84.3682 54.4788 84.4524 54.9896 84.4204 55.4998C84.3432 56.5097 84.0642 57.4953 83.599 58.401C82.9426 59.7962 82.114 61.1083 81.1315 62.3081C80.4508 63.2169 79.5902 63.9838 78.6006 64.5638C77.8998 64.962 77.1063 65.1794 76.2952 65.1956ZM73.091 62.315C73.243 62.8532 73.5229 63.3491 73.9081 63.7624C74.2932 64.1757 74.7729 64.495 75.3082 64.6943C75.8313 64.831 76.3773 64.8632 76.9135 64.7888C77.4496 64.7145 77.9648 64.5352 78.4279 64.2617C79.3772 63.7039 80.2028 62.9674 80.8566 62.0953C81.8177 60.9167 82.6285 59.6289 83.2712 58.2602C83.7181 57.3983 83.9864 56.4592 84.0608 55.4964C84.0931 55.0363 84.02 54.5749 83.8469 54.1456C83.6738 53.7163 83.4049 53.3298 83.0597 53.0141C82.0621 52.1764 80.1128 51.7403 78.093 51.9017C76.3093 52.0459 74.857 52.6261 74.1097 53.5016C72.4177 55.4724 72.3754 60.1108 73.091 62.315Z" fill="#231F20"/>
<path d="M89.923 45.7663C90.8782 44.2007 91.9569 42.6763 92.6936 41.0283C93.4303 39.3803 93.8004 37.5023 93.2752 35.8234C93.0978 35.1307 92.673 34.5221 92.0767 34.1067C91.7619 33.9052 91.3927 33.7995 91.016 33.8032C90.6393 33.8069 90.2723 33.9197 89.9617 34.1273C89.6746 33.3558 89.1715 32.6779 88.5094 32.1703C87.0058 30.8389 85.1478 29.9465 83.1479 29.5953C81.0749 29.2428 78.9412 29.6474 77.1554 30.7318C76.4293 31.1918 75.7807 31.7618 75.0122 32.1532C74.3662 32.475 73.651 32.6428 72.9254 32.6428C72.1998 32.6428 71.4846 32.475 70.8386 32.1532C70.324 34.7488 71.244 37.413 72.8761 39.4627C74.5081 41.5124 76.7959 43.0059 79.1964 44.211C80.4475 44.8929 81.8109 45.3576 83.2255 45.5844C84.6914 45.813 86.1913 45.4822 87.4132 44.6608" fill="white"/>
<path d="M89.9229 45.9414C89.8906 45.9421 89.8588 45.9338 89.8312 45.9174C89.8103 45.9057 89.7921 45.8901 89.7775 45.8714C89.763 45.8527 89.7524 45.8313 89.7465 45.8086C89.7406 45.7859 89.7394 45.7622 89.7431 45.739C89.7467 45.7158 89.7551 45.6936 89.7678 45.6736C90.018 45.2651 90.2754 44.8565 90.5362 44.4514C91.2856 43.3363 91.9501 42.1693 92.5243 40.9597C93.1059 39.6516 93.6734 37.7049 93.0989 35.8749C92.9295 35.2291 92.5328 34.6617 91.9779 34.2715C91.6971 34.0892 91.3672 33.9919 91.0297 33.9919C90.6922 33.9919 90.3623 34.0892 90.0815 34.2715C90.0575 34.2887 90.0296 34.3001 90.0002 34.3049C89.9708 34.3097 89.9407 34.3076 89.9123 34.299C89.8846 34.2902 89.8596 34.2749 89.8394 34.2546C89.8191 34.2343 89.8042 34.2094 89.796 34.1823C89.5139 33.442 89.0256 32.7928 88.386 32.3077C86.9114 30.9956 85.0855 30.1171 83.1196 29.7739C81.0967 29.4384 79.0178 29.8392 77.2787 30.9C77.0037 31.0751 76.7358 31.2708 76.475 31.4596C76.0493 31.7879 75.5952 32.0797 75.1179 32.3317C74.4815 32.6425 73.7827 32.8129 73.0711 32.8307C72.3594 32.8485 71.6525 32.7133 71.0007 32.4347C70.62 34.7385 71.3532 37.2414 73.0452 39.37C74.4552 41.1416 76.4433 42.6351 79.302 44.0703C80.5347 44.7484 81.8789 45.2131 83.2747 45.4436C84.6931 45.6662 86.145 45.3477 87.3285 44.5544C87.3674 44.5309 87.414 44.5225 87.4591 44.5308C87.5041 44.5391 87.5443 44.5636 87.5717 44.5994C87.5991 44.6351 87.6118 44.6796 87.6073 44.724C87.6027 44.7684 87.5812 44.8096 87.547 44.8393C86.287 45.686 84.7407 46.0278 83.2289 45.7938C81.7916 45.5578 80.4071 45.0815 79.1364 44.3861C76.2282 42.927 74.2014 41.3991 72.7596 39.5795C70.9513 37.3135 70.1934 34.5943 70.6834 32.1291C70.689 32.1016 70.7012 32.0758 70.719 32.0537C70.7367 32.0317 70.7596 32.014 70.7856 32.0021C70.8107 31.9895 70.8385 31.9829 70.8667 31.9829C70.8949 31.9829 70.9227 31.9895 70.9478 32.0021C71.5683 32.3085 72.2543 32.4682 72.95 32.4682C73.6457 32.4682 74.3317 32.3085 74.9522 32.0021C75.4115 31.7596 75.8479 31.4781 76.2564 31.1609C76.5208 30.9687 76.7958 30.7695 77.0813 30.591C78.9017 29.4855 81.077 29.0735 83.1901 29.434C85.2244 29.7877 87.1141 30.6961 88.6398 32.0536C89.2586 32.5393 89.7492 33.162 90.0709 33.8698C90.4013 33.7039 90.7708 33.6258 91.1421 33.6433C91.5134 33.6607 91.8734 33.7732 92.1859 33.9694C92.8178 34.4033 93.2703 35.0424 93.462 35.7719C94.0683 37.7049 93.462 39.7374 92.8733 41.1004C92.2925 42.3258 91.6197 43.5078 90.8605 44.6368C90.5997 45.0419 90.3423 45.447 90.0921 45.8556C90.0753 45.8842 90.0504 45.9075 90.0204 45.9227C89.9904 45.938 89.9565 45.9444 89.9229 45.9414Z" fill="#231F20"/>
<path d="M76.1577 50.3807L73.796 54.8097C73.796 54.8097 71.9912 60.1005 76.401 60.3031C80.8108 60.5056 83.5426 56.4612 83.5426 56.4612L88.1005 46.4805C88.1005 46.4805 85.633 44.0943 88.7279 38.0379C84.9583 38.4927 81.1323 37.968 77.6382 36.5169C77.6382 36.5169 73.3871 42.8377 72.8125 46.0067C72.2379 49.1756 76.1577 50.3807 76.1577 50.3807Z" fill="white"/>
<path d="M76.6899 60.4679C76.5912 60.4679 76.4925 60.4679 76.3903 60.4679C75.2235 60.4198 74.3669 60.0181 73.8417 59.2765C72.6679 57.6216 73.5844 54.875 73.6267 54.7582L75.9003 50.47C75.086 50.161 72.1145 48.822 72.6326 45.9689C73.2072 42.7999 77.3103 36.6714 77.4866 36.4105C77.5097 36.3758 77.5447 36.3503 77.5854 36.3383C77.626 36.3264 77.6697 36.3288 77.7086 36.3453C81.1724 37.7764 84.961 38.2973 88.6961 37.8559C88.7291 37.8498 88.7633 37.853 88.7945 37.8652C88.8258 37.8773 88.8528 37.898 88.8723 37.9246C88.8902 37.9524 88.8996 37.9845 88.8996 38.0173C88.8996 38.0501 88.8902 38.0822 88.8723 38.11C87.3002 41.176 87.2085 43.26 87.4059 44.4617C87.4869 45.1558 87.7735 45.8119 88.2308 46.35C88.2566 46.3758 88.2738 46.4087 88.2801 46.4442C88.2864 46.4798 88.2815 46.5164 88.266 46.5491L83.7082 56.5298C83.6659 56.5985 80.9763 60.4679 76.6899 60.4679ZM77.7086 36.7367C77.1129 37.6362 73.5104 43.1845 72.9922 46.0376C72.4493 49.0177 76.1647 50.1988 76.214 50.2091C76.239 50.218 76.2618 50.2317 76.2812 50.2494C76.3006 50.2671 76.3161 50.2884 76.3268 50.3121C76.3381 50.3351 76.344 50.3603 76.344 50.3859C76.344 50.4114 76.3381 50.4366 76.3268 50.4597L73.9651 54.8887C73.9651 54.8887 73.0768 57.5598 74.1484 59.0705C74.6066 59.716 75.368 60.0662 76.415 60.1005C80.6802 60.2893 83.3698 56.3959 83.398 56.3547L87.8959 46.5045C87.4729 46.0101 85.8021 43.5656 88.4211 38.2645C84.7756 38.6248 81.0951 38.0999 77.7086 36.7367Z" fill="#231F20"/>
<path d="M80.7858 41.509C80.7858 41.509 77.6697 44.4136 78.0822 45.0865C78.4946 45.7595 80.1337 45.6462 80.1337 45.6462" fill="white"/>
<path d="M79.8447 45.8281C79.3195 45.8281 78.2867 45.7492 77.9342 45.1724C77.483 44.4411 79.9082 42.0824 80.6625 41.3957C80.6789 41.3796 80.6984 41.3668 80.7199 41.3581C80.7413 41.3494 80.7644 41.3449 80.7876 41.3449C80.8109 41.3449 80.8339 41.3494 80.8554 41.3581C80.8769 41.3668 80.8964 41.3796 80.9128 41.3957C80.9293 41.4117 80.9424 41.4306 80.9514 41.4516C80.9603 41.4725 80.9649 41.4949 80.9649 41.5176C80.9649 41.5402 80.9603 41.5627 80.9514 41.5836C80.9424 41.6045 80.9293 41.6235 80.9128 41.6395C79.457 42.9956 78.0399 44.6745 78.2408 45.0041C78.5369 45.4814 79.7037 45.5123 80.1267 45.4814C80.1732 45.4795 80.2187 45.4952 80.2536 45.5253C80.2884 45.5554 80.3099 45.5975 80.3135 45.6427C80.3155 45.6651 80.3128 45.6876 80.3056 45.709C80.2984 45.7303 80.287 45.7501 80.2719 45.767C80.2567 45.784 80.2383 45.7978 80.2176 45.8077C80.1969 45.8176 80.1744 45.8234 80.1514 45.8247C80.1056 45.8213 79.9963 45.8281 79.8447 45.8281Z" fill="#231F20"/>
<path d="M84.8067 41.3504C84.9086 40.8481 84.8085 40.4058 84.5832 40.3624C84.3578 40.319 84.0925 40.691 83.9906 41.1933C83.8887 41.6955 83.9887 42.1378 84.2141 42.1812C84.4395 42.2246 84.7048 41.8526 84.8067 41.3504Z" fill="#231F20"/>
<path d="M78.3825 40.5573C78.4771 40.0556 78.3713 39.6162 78.1461 39.5759C77.921 39.5356 77.6618 39.9097 77.5672 40.4114C77.4726 40.9132 77.5784 41.3525 77.8035 41.3928C78.0286 41.4331 78.2878 41.059 78.3825 40.5573Z" fill="#231F20"/>
<path d="M86.0276 44.1527C86.5934 43.6543 87.2481 43.261 87.9593 42.9922C88.3352 42.8252 88.7531 42.7691 89.1613 42.8308C89.4756 42.9163 89.7574 43.0893 89.9721 43.3287C90.2988 43.6647 90.5449 44.0673 90.6924 44.5073C90.84 44.9472 90.8853 45.4136 90.8251 45.8728C90.7768 46.3094 90.6168 46.7273 90.3598 47.0882C89.9172 47.6454 89.2974 48.0439 88.5973 48.2212C87.9053 48.3905 87.1957 48.4827 86.4823 48.4958" fill="white"/>
<path d="M86.4507 48.6744C86.4124 48.6637 86.3787 48.6412 86.3547 48.6102C86.3307 48.5792 86.3177 48.5415 86.3177 48.5027C86.3177 48.4639 86.3307 48.4262 86.3547 48.3952C86.3787 48.3642 86.4124 48.3417 86.4507 48.331C87.1558 48.3179 87.857 48.2269 88.541 48.0598C89.2067 47.8975 89.7982 47.5243 90.2224 46.9989C90.4598 46.6588 90.6086 46.2676 90.656 45.859C90.7123 45.4255 90.6694 44.9852 90.5305 44.5697C90.3915 44.1542 90.1599 43.7738 89.8523 43.4557C89.6607 43.2421 89.4097 43.0871 89.1297 43.0094C88.7578 42.9593 88.3789 43.0129 88.0369 43.1639C87.3434 43.4248 86.7044 43.8063 86.1511 44.29C86.1147 44.3158 86.0699 44.3277 86.0251 44.3234C85.9803 44.3192 85.9387 44.299 85.9082 44.2667C85.8777 44.2345 85.8605 44.1924 85.8598 44.1486C85.859 44.1048 85.8749 44.0622 85.9043 44.0291C86.4889 43.5172 87.1636 43.1124 87.8959 42.8343C88.3044 42.655 88.7579 42.5965 89.2002 42.666C89.5507 42.7549 89.8654 42.9453 90.1026 43.2119C90.448 43.5671 90.7083 43.9923 90.865 44.4572C91.0216 44.922 91.0706 45.4148 91.0085 45.9002C90.9537 46.3663 90.7818 46.8121 90.508 47.198C90.0374 47.7906 89.3776 48.2134 88.6327 48.3997C87.9216 48.5706 87.1935 48.665 86.4613 48.6812L86.4507 48.6744Z" fill="#231F20"/>
<path d="M76.1577 50.3807C76.1577 50.3807 79.9118 51.5549 82.3863 50.8442C82.3863 50.8442 78.4031 54.9265 73.7959 54.8097L76.1577 50.3807Z" fill="#231F20"/>
<path d="M73.9969 54.9883H73.7924C73.7617 54.9881 73.7315 54.9801 73.7049 54.965C73.6783 54.95 73.6562 54.9284 73.6409 54.9024C73.6261 54.8761 73.6183 54.8466 73.6183 54.8166C73.6183 54.7866 73.6261 54.7571 73.6409 54.7308L75.9991 50.3018C76.0193 50.2646 76.0521 50.2354 76.092 50.2191C76.1318 50.2028 76.1762 50.2005 76.2176 50.2125C76.2529 50.2125 79.9471 51.3661 82.337 50.6794C82.3754 50.6675 82.4167 50.6685 82.4544 50.6822C82.4921 50.6959 82.524 50.7215 82.545 50.755C82.5654 50.7888 82.574 50.8281 82.5695 50.8671C82.5651 50.9061 82.5478 50.9426 82.5203 50.9713C82.3547 51.1326 78.5406 54.9883 73.9969 54.9883ZM76.2494 50.5936L74.0956 54.6312C77.5501 54.59 80.645 52.1661 81.7801 51.1567C79.6087 51.5 76.9121 50.7859 76.2494 50.5936Z" fill="#231F20"/>
<path d="M70.1474 60.6773C70.1059 60.6773 70.0656 60.6633 70.0335 60.6376C70.0013 60.6119 69.9793 60.5762 69.9712 60.5365C69.127 57.3607 67.4926 54.4363 65.2124 52.0219C65.1953 52.0056 65.1816 51.9861 65.1723 51.9645C65.163 51.943 65.1582 51.9199 65.1582 51.8966C65.1582 51.8732 65.163 51.8501 65.1723 51.8286C65.1816 51.807 65.1953 51.7875 65.2124 51.7712C65.2471 51.7391 65.2932 51.7212 65.3411 51.7212C65.389 51.7212 65.435 51.7391 65.4697 51.7712C67.7973 54.2346 69.4646 57.2195 70.3237 60.461C70.3288 60.4838 70.3292 60.5074 70.3249 60.5303C70.3206 60.5532 70.3116 60.5751 70.2984 60.5946C70.2853 60.6141 70.2683 60.6309 70.2484 60.6439C70.2285 60.6569 70.2062 60.666 70.1827 60.6704L70.1474 60.6773Z" fill="#231F20"/>
<path d="M82.2665 63.7673C82.2255 63.7685 82.1854 63.755 82.1537 63.7295C82.1346 63.7151 82.1186 63.6971 82.1068 63.6766C82.095 63.6561 82.0876 63.6334 82.0849 63.6101C82.0823 63.5867 82.0845 63.563 82.0915 63.5404C82.0985 63.5179 82.11 63.497 82.1255 63.4789C85.0794 60.3182 88.8437 57.9802 93.0319 56.7049C93.0781 56.6918 93.1278 56.6967 93.1705 56.7184C93.2132 56.7402 93.2456 56.7772 93.261 56.8217C93.2686 56.844 93.2715 56.8675 93.2696 56.8909C93.2676 56.9144 93.2609 56.9372 93.2497 56.958C93.2385 56.9788 93.2231 56.9972 93.2045 57.0122C93.1858 57.0271 93.1643 57.0382 93.1411 57.0448C89.0206 58.2979 85.3162 60.5954 82.4075 63.7021C82.3907 63.7228 82.3693 63.7394 82.3448 63.7507C82.3204 63.762 82.2936 63.7677 82.2665 63.7673Z" fill="#231F20"/>
<path d="M79.3336 42.1373C79.2773 42.1407 79.2208 42.1407 79.1644 42.1373L75.1918 41.5227C75.0541 41.5018 74.9221 41.4547 74.8032 41.3839C74.6844 41.3132 74.5811 41.2203 74.4992 41.1106C74.4173 41.0008 74.3585 40.8764 74.3261 40.7444C74.2937 40.6125 74.2884 40.4756 74.3105 40.3417L74.5819 38.6868C74.6261 38.4174 74.7783 38.1761 75.0049 38.0158C75.2316 37.8555 75.5143 37.7894 75.791 37.8319L79.7637 38.443C79.9013 38.4639 80.0333 38.5111 80.1522 38.5818C80.271 38.6526 80.3744 38.7455 80.4563 38.8552C80.5381 38.965 80.597 39.0894 80.6293 39.2213C80.6617 39.3533 80.667 39.4902 80.6449 39.6241L80.37 41.2687C80.3307 41.5101 80.2045 41.73 80.014 41.8892C79.8235 42.0483 79.5811 42.1362 79.3301 42.1373H79.3336ZM79.2208 41.794C79.3133 41.8065 79.4073 41.801 79.4976 41.7779C79.5878 41.7547 79.6725 41.7144 79.7466 41.6591C79.8207 41.6039 79.8828 41.5348 79.9293 41.456C79.9758 41.3772 80.0058 41.2902 80.0175 41.2L80.2854 39.5451C80.3119 39.3679 80.2664 39.1876 80.1584 39.0426C80.0504 38.8977 79.8885 38.7996 79.7073 38.7692L75.7346 38.1581C75.6449 38.143 75.5531 38.1459 75.4646 38.1665C75.3761 38.1872 75.2929 38.2252 75.22 38.2782C75.1456 38.3295 75.0825 38.3948 75.0347 38.4703C74.9868 38.5458 74.9551 38.63 74.9415 38.7177L74.6701 40.376C74.6445 40.5527 74.6905 40.7321 74.7984 40.8763C74.9063 41.0205 75.0676 41.1181 75.2482 41.1485L79.2208 41.794Z" fill="#231F20"/>
<path d="M86.4155 43.2325C86.3592 43.2376 86.3025 43.2376 86.2463 43.2325L82.2736 42.618C81.997 42.5749 81.7492 42.4267 81.5847 42.206C81.4201 41.9852 81.3522 41.7098 81.3959 41.4403L81.6638 39.7855C81.6836 39.6493 81.7313 39.5184 81.8039 39.4005C81.8766 39.2825 81.9728 39.18 82.0868 39.0988C82.1993 39.0187 82.3271 38.9611 82.4626 38.9293C82.5981 38.8975 82.7387 38.8921 82.8764 38.9134L86.849 39.528C87.1256 39.571 87.3734 39.7192 87.538 39.94C87.7025 40.1608 87.7704 40.4361 87.7268 40.7056L87.4589 42.3639C87.439 42.5001 87.3913 42.631 87.3187 42.7489C87.246 42.8668 87.1499 42.9694 87.0359 43.0506C86.8537 43.1729 86.6367 43.2366 86.4155 43.2325ZM86.3027 42.8686C86.4849 42.8961 86.6709 42.8529 86.8208 42.7484C86.9696 42.642 87.0696 42.483 87.0993 42.3055L87.3672 40.6507C87.3928 40.474 87.3467 40.2945 87.2388 40.1504C87.1309 40.0062 86.9696 39.9085 86.7891 39.8782L82.8164 39.2636C82.635 39.2387 82.4508 39.2835 82.3028 39.3886C82.1547 39.4937 82.0545 39.6508 82.0233 39.8267L81.7519 41.4815C81.7263 41.6582 81.7724 41.8377 81.8803 41.9818C81.9882 42.126 82.1495 42.2237 82.33 42.254L86.3027 42.8686Z" fill="#231F20"/>
<path d="M81.8435 39.9743C81.8207 39.975 81.7979 39.9711 81.7767 39.9628C81.7554 39.9546 81.7362 39.9421 81.7201 39.9262C81.0821 39.3426 80.5992 39.7065 80.578 39.7237C80.5596 39.7382 80.5383 39.749 80.5155 39.7555C80.4927 39.762 80.4689 39.764 80.4453 39.7614C80.4217 39.7589 80.3988 39.7518 80.378 39.7406C80.3573 39.7294 80.339 39.7143 80.3242 39.6962C80.3089 39.6784 80.2973 39.6577 80.2904 39.6355C80.2835 39.6132 80.2813 39.5898 80.2839 39.5667C80.2866 39.5436 80.294 39.5212 80.3058 39.501C80.3175 39.4808 80.3334 39.4631 80.3524 39.449C80.6098 39.2464 81.276 39.0336 81.9669 39.6687C81.9942 39.6926 82.0135 39.724 82.0219 39.7588C82.0304 39.7936 82.0278 39.83 82.0143 39.8633C82.0009 39.8966 81.9773 39.9251 81.9468 39.9449C81.9163 39.9647 81.8802 39.975 81.8435 39.9743Z" fill="#231F20"/>
<path d="M79.3619 47.5002C78.4223 47.4728 77.4911 47.3192 76.5947 47.0435C76.4676 47.0031 76.3381 46.9698 76.207 46.944C76.1726 46.9503 76.137 46.9468 76.1045 46.934C76.072 46.9213 76.044 46.8997 76.0237 46.8719C75.998 46.8335 75.9888 46.7868 75.998 46.7419C76.0072 46.6969 76.0342 46.6573 76.073 46.6315C76.1717 46.5663 76.274 46.5938 76.6934 46.7105C78.1034 47.1019 81.7941 48.1422 82.9503 44.6505C82.9571 44.6288 82.9683 44.6087 82.9832 44.5914C82.9982 44.574 83.0166 44.5598 83.0373 44.5495C83.0581 44.5392 83.0807 44.5332 83.1039 44.5316C83.1271 44.5301 83.1504 44.5332 83.1724 44.5406C83.1942 44.5473 83.2145 44.5581 83.232 44.5724C83.2496 44.5867 83.264 44.6043 83.2745 44.6241C83.285 44.6439 83.2913 44.6655 83.2932 44.6877C83.295 44.71 83.2923 44.7323 83.2852 44.7535C82.559 46.9508 80.8988 47.5002 79.3619 47.5002Z" fill="#231F20"/>
<path d="M27.1426 13.5033L33.262 87.0728L111.344 80.9202L105.232 7.34733L27.1426 13.5033ZM104.174 66.72L37.9679 71.9386L34.6755 32.1772L100.882 26.9585L104.174 66.72Z" fill="white"/>
<path d="M33.262 87.2444C33.2164 87.2471 33.1714 87.2337 33.1351 87.2067C33.0996 87.1759 33.0781 87.1327 33.0752 87.0865L26.9769 13.517C26.975 13.4945 26.9777 13.4718 26.9848 13.4502C26.9919 13.4287 27.0033 13.4087 27.0184 13.3915C27.0335 13.3742 27.0519 13.3601 27.0726 13.3498C27.0933 13.3395 27.1159 13.3334 27.1391 13.3316L105.218 7.1791C105.264 7.17528 105.31 7.18935 105.346 7.21827C105.381 7.2472 105.404 7.28863 105.408 7.3336L111.521 80.9065C111.522 80.929 111.52 80.9518 111.513 80.9733C111.506 80.9949 111.494 81.0148 111.479 81.0321C111.464 81.0493 111.446 81.0634 111.425 81.0737C111.404 81.084 111.382 81.0902 111.358 81.0919L33.2761 87.2444H33.262ZM27.3435 13.6578L33.4241 86.8908L111.154 80.7623L105.07 7.53274L27.3435 13.6578ZM37.9784 72.1C37.9369 72.1005 37.8966 72.0858 37.8656 72.0588C37.8477 72.0444 37.8328 72.0267 37.8219 72.0066C37.811 71.9866 37.8043 71.9646 37.8022 71.9421L34.4993 32.1909C34.4973 32.1684 34.5 32.1457 34.5071 32.1241C34.5143 32.1026 34.5257 32.0826 34.5407 32.0654C34.5558 32.0481 34.5742 32.034 34.595 32.0237C34.6157 32.0134 34.6383 32.0073 34.6614 32.0055L100.868 26.78C100.915 26.7768 100.962 26.7916 100.998 26.8212C101.033 26.8511 101.055 26.893 101.058 26.9379L104.361 66.6994C104.363 66.7219 104.36 66.7446 104.353 66.7662C104.346 66.7877 104.335 66.8077 104.32 66.8249C104.305 66.8422 104.286 66.8563 104.266 66.8666C104.245 66.8768 104.222 66.883 104.199 66.8848L37.9925 72.1H37.9784ZM34.8659 32.3351L38.1406 71.7567L103.988 66.5655L100.723 27.1439L34.8659 32.3351Z" fill="#231F20"/>
<path d="M36.8399 21.1905C38.6835 21.1905 40.178 19.7348 40.178 17.9392C40.178 16.1435 38.6835 14.6878 36.8399 14.6878C34.9963 14.6878 33.5017 16.1435 33.5017 17.9392C33.5017 19.7348 34.9963 21.1905 36.8399 21.1905Z" fill="#D1D3D4"/>
<path d="M34.5451 23.4359C34.4984 23.4359 34.4536 23.4178 34.4205 23.3857C34.3875 23.3535 34.3689 23.3098 34.3689 23.2643C34.3689 23.2187 34.3875 23.1751 34.4205 23.1429C34.4536 23.1107 34.4984 23.0926 34.5451 23.0926L99.5462 17.9701C99.5693 17.9683 99.5926 17.9709 99.6147 17.9779C99.6368 17.9848 99.6572 17.996 99.6749 18.0106C99.6926 18.0253 99.7071 18.0432 99.7177 18.0634C99.7283 18.0835 99.7347 18.1055 99.7365 18.128C99.7384 18.1505 99.7356 18.1732 99.7285 18.1947C99.7213 18.2163 99.7099 18.2362 99.6949 18.2534C99.6798 18.2706 99.6614 18.2848 99.6407 18.2951C99.6201 18.3054 99.5975 18.3116 99.5744 18.3134L34.5733 23.4359H34.5451Z" fill="#D1D3D4"/>
<path d="M34.8976 27.58C34.8508 27.58 34.806 27.5619 34.7729 27.5297C34.7399 27.4975 34.7213 27.4538 34.7213 27.4083C34.7213 27.3628 34.7399 27.3191 34.7729 27.2869C34.806 27.2547 34.8508 27.2366 34.8976 27.2366L86.2392 23.1887C86.2858 23.1859 86.3317 23.2007 86.3672 23.2302C86.4027 23.2597 86.4251 23.3014 86.4295 23.3467C86.4315 23.3692 86.4288 23.3919 86.4217 23.4135C86.4146 23.435 86.4031 23.455 86.3881 23.4722C86.373 23.4895 86.3546 23.5036 86.3339 23.5139C86.3132 23.5242 86.2906 23.5303 86.2674 23.5321L34.9152 27.58H34.8976Z" fill="#D1D3D4"/>
<path d="M42.5364 82.1665C44.8764 82.1665 46.7734 80.3189 46.7734 78.0397C46.7734 75.7605 44.8764 73.9128 42.5364 73.9128C40.1963 73.9128 38.2993 75.7605 38.2993 78.0397C38.2993 80.3189 40.1963 82.1665 42.5364 82.1665Z" fill="#F54A4A"/>
<path d="M52.0677 81.4146C54.4078 81.4146 56.3048 79.567 56.3048 77.2878C56.3048 75.0086 54.4078 73.1609 52.0677 73.1609C49.7277 73.1609 47.8307 75.0086 47.8307 77.2878C47.8307 79.567 49.7277 81.4146 52.0677 81.4146Z" fill="#F54A4A"/>
<path d="M40.9318 77.585L40.2339 77.6393C40.0918 77.6504 39.9858 77.7716 39.9971 77.91L40.1562 79.8464C40.1676 79.9849 40.292 80.0881 40.4341 80.077L41.132 80.0226C41.2742 80.0116 41.3801 79.8904 41.3688 79.7519L41.2097 77.8155C41.1984 77.6771 41.0739 77.5739 40.9318 77.585Z" fill="white"/>
<path d="M41.7714 77.6517L41.9476 79.6533L44.8804 79.4233C44.8804 79.4233 45.3633 77.02 44.965 76.8792C44.5667 76.7384 43.3999 76.8792 43.3999 76.8792C43.3999 76.8792 43.837 75.2175 43.3647 75.1625C42.8923 75.1076 42.36 76.6904 41.7714 77.6517Z" fill="white"/>
<path d="M51.9761 76.22L52.036 76.1136C52.1674 75.8922 52.3589 75.7105 52.5894 75.5883C52.7684 75.4952 52.9682 75.4468 53.171 75.4475C53.4474 75.4441 53.7166 75.5333 53.9336 75.7002C54.1505 75.8671 54.3019 76.1015 54.3625 76.3642C54.3965 76.5221 54.4096 76.6837 54.4013 76.8449C54.4024 77.0001 54.3823 77.1548 54.3413 77.3049C54.2698 77.5431 54.1499 77.7649 53.9888 77.9572C53.8286 78.1556 53.6568 78.3447 53.4742 78.5237C53.164 78.8362 52.8503 79.1486 52.5401 79.4645C52.4484 79.5572 52.3638 79.6533 52.2722 79.7494V79.7666L52.1946 79.7082C51.8421 79.4336 51.4896 79.1726 51.1371 78.9151C50.9009 78.7469 50.6612 78.5718 50.4321 78.3933C50.2671 78.2623 50.1202 78.1112 49.995 77.9435C49.8646 77.7648 49.7712 77.5631 49.7201 77.3495C49.6811 77.1907 49.6575 77.0286 49.6496 76.8655C49.6356 76.6297 49.6955 76.3955 49.8215 76.1937C49.9474 75.992 50.1333 75.8323 50.3546 75.7359C50.5759 75.6365 50.8225 75.6031 51.0633 75.6398C51.3041 75.6764 51.5285 75.7815 51.7082 75.9419C51.8029 76.0179 51.887 76.1056 51.9584 76.2028L51.9761 76.22Z" fill="white"/>
<path d="M59.7728 14.6776L42.3634 16.0508L42.5344 18.1075L59.9438 16.7343L59.7728 14.6776Z" fill="#D1D3D4"/>
<path d="M59.4245 76.8792C59.3807 76.8785 59.3388 76.8619 59.3069 76.8327C59.2749 76.8035 59.2553 76.7638 59.2518 76.7213C59.2494 76.6989 59.2516 76.6763 59.2583 76.6547C59.265 76.6332 59.2761 76.6132 59.2909 76.5959C59.3057 76.5786 59.3239 76.5644 59.3444 76.5541C59.3649 76.5438 59.3874 76.5376 59.4104 76.5359L71.9101 75.5505C71.9331 75.5486 71.9562 75.5512 71.9781 75.5582C72 75.5652 72.0203 75.5764 72.0377 75.5911C72.0551 75.6058 72.0693 75.6238 72.0795 75.6439C72.0897 75.6641 72.0956 75.686 72.0969 75.7084C72.1008 75.7534 72.0864 75.7981 72.0567 75.8329C72.027 75.8676 71.9845 75.8895 71.9383 75.8938L59.4351 76.8792H59.4245Z" fill="#D1D3D4"/>
<path d="M113.174 41.5845C114.055 41.018 114.989 33.4887 112.356 31.7583C110.469 30.4797 108.654 29.1044 106.917 27.6383L107.164 30.6253C107.164 30.6253 104.414 29.6777 104.026 30.9687C103.639 32.2596 104.249 34.0964 107.671 36.7161L107.876 39.2018L113.174 41.5845Z" fill="white"/>
<path d="M113.174 41.7631C113.148 41.7682 113.122 41.7682 113.096 41.7631L107.809 39.3597C107.779 39.3462 107.754 39.3254 107.736 39.2995C107.717 39.2737 107.706 39.2435 107.703 39.2121L107.502 36.8088C104.583 34.5565 103.357 32.5755 103.857 30.9206C103.897 30.7853 103.965 30.6598 104.058 30.5521C104.151 30.4444 104.266 30.357 104.396 30.2957C105.144 29.9215 106.42 30.2202 106.97 30.3781L106.741 27.6521C106.738 27.6168 106.746 27.5816 106.764 27.5508C106.782 27.5201 106.809 27.4952 106.841 27.4794C106.874 27.4636 106.91 27.4575 106.946 27.462C106.982 27.4665 107.016 27.4812 107.044 27.5044C108.775 28.9702 110.584 30.3454 112.465 31.6244C114.055 32.6716 114.28 35.5041 114.27 37.1178C114.27 39.061 113.861 41.3923 113.279 41.7665C113.244 41.7746 113.208 41.7734 113.174 41.7631ZM108.048 39.0748L113.138 41.3751C113.459 40.9837 113.889 39.2361 113.9 37.0834C113.9 34.4913 113.315 32.6029 112.254 31.906C110.48 30.706 108.771 29.4168 107.135 28.0435L107.347 30.6013C107.349 30.6307 107.343 30.6601 107.331 30.687C107.319 30.7139 107.3 30.7375 107.276 30.7558C107.252 30.7743 107.224 30.7866 107.194 30.7914C107.163 30.7962 107.132 30.7934 107.104 30.7833C107.104 30.7833 105.369 30.1927 104.555 30.5979C104.47 30.6385 104.394 30.6962 104.334 30.7672C104.273 30.8382 104.228 30.9209 104.203 31.0099C103.744 32.5274 104.95 34.3951 107.787 36.5684C107.807 36.5833 107.823 36.602 107.834 36.6233C107.846 36.6446 107.853 36.668 107.854 36.692L108.048 39.0748Z" fill="#231F20"/>
<path d="M29.6876 40.7949L29.596 40.7502C26.9064 39.5383 27.2096 44.2351 27.4598 45.6118C27.7383 47.1088 28.5773 50.7138 30.872 49.1928C33.3783 47.5311 32.2256 42.0549 29.6876 40.7949Z" fill="white"/>
<path d="M29.832 49.7353C29.6467 49.7361 29.4631 49.6999 29.2927 49.6288C28.3762 49.2546 27.6994 47.9122 27.2834 45.6427C27.0966 44.6127 26.8322 41.5227 28.0307 40.6266C28.4573 40.3039 29.0107 40.2833 29.6699 40.5889L29.7686 40.6369C31.1997 41.3476 32.296 43.3836 32.437 45.5535C32.5498 47.2701 32.014 48.6435 30.9741 49.3301C30.6448 49.5756 30.2463 49.717 29.832 49.7353ZM28.7992 40.7296C28.6013 40.7256 28.4082 40.7887 28.2528 40.9082C27.2834 41.636 27.428 44.4205 27.6395 45.5809C28.133 48.2521 28.9049 49.0967 29.4337 49.3027C29.8285 49.464 30.2656 49.3816 30.7697 49.0452C31.7003 48.4272 32.1797 47.1637 32.0739 45.5741C31.9435 43.5415 30.9036 41.5983 29.6064 40.9528L29.5218 40.9116C29.297 40.8014 29.0506 40.7394 28.7992 40.7296Z" fill="#231F20"/>
<path d="M45.8674 62.0918C45.8211 62.092 45.7765 62.075 45.7425 62.0445C45.7085 62.0139 45.6876 61.972 45.6841 61.927C45.5572 60.1657 44.1436 56.2964 44.1295 56.2586C44.1211 56.2367 44.1173 56.2135 44.1183 56.1902C44.1193 56.1669 44.125 56.144 44.1352 56.1229C44.1454 56.1018 44.1598 56.0829 44.1776 56.0673C44.1954 56.0517 44.2162 56.0397 44.2388 56.032C44.2842 56.0174 44.3336 56.0202 44.3769 56.04C44.4202 56.0598 44.454 56.0951 44.4715 56.1384C44.5314 56.2998 45.9167 60.0902 46.0472 61.903C46.0491 61.9263 46.0462 61.9497 46.0387 61.9719C46.0312 61.994 46.0192 62.0145 46.0034 62.0321C45.9876 62.0497 45.9684 62.0641 45.9469 62.0743C45.9253 62.0846 45.9019 62.0905 45.8779 62.0918H45.8674Z" fill="#231F20"/>
<path d="M67.7647 64.5295L60.7852 62.8849L60.193 64.5295L67.2641 66.3663L67.7647 64.5295Z" fill="white"/>
<path d="M67.264 66.5449H67.2147L60.1435 64.708C60.1195 64.7014 60.0971 64.6901 60.0777 64.6748C60.0583 64.6594 60.0423 64.6403 60.0307 64.6188C60.0203 64.5967 60.0149 64.5727 60.0149 64.5484C60.0149 64.5241 60.0203 64.5001 60.0307 64.478L60.63 62.83C60.6452 62.7887 60.6756 62.7542 60.7153 62.7333C60.7549 62.7124 60.8011 62.7065 60.845 62.7167L67.821 64.3613C67.8447 64.3665 67.867 64.3765 67.8864 64.3907C67.9059 64.4049 67.922 64.423 67.9338 64.4437C67.9475 64.463 67.9566 64.485 67.9602 64.5082C67.9639 64.5314 67.9621 64.5551 67.9549 64.5776L67.4544 66.4144C67.441 66.4599 67.4109 66.499 67.3698 66.5243C67.337 66.5401 67.3005 66.5472 67.264 66.5449ZM60.4291 64.4093L67.1266 66.15L67.5355 64.66L60.8979 63.0978L60.4291 64.4093Z" fill="#231F20"/>
<path d="M44.0343 44.7947C43.8756 44.8002 43.7196 44.7534 43.5917 44.6618C43.4637 44.5702 43.3712 44.4392 43.3293 44.29L42.1413 40.3691C42.1104 40.2784 42.0992 40.1823 42.1086 40.087C42.1179 39.9918 42.1476 39.8995 42.1958 39.8161C42.2439 39.7327 42.3094 39.6601 42.388 39.6027C42.4667 39.5454 42.5567 39.5048 42.6525 39.4833L44.0625 39.0782C44.1531 39.0499 44.2488 39.0398 44.3436 39.0485C44.4384 39.0572 44.5304 39.0845 44.6141 39.1288C44.6977 39.1731 44.7713 39.2334 44.8304 39.3061C44.8895 39.3789 44.9328 39.4625 44.9578 39.552L46.1457 43.4729C46.1994 43.6513 46.1783 43.8432 46.0872 44.0066C45.996 44.17 45.8422 44.2917 45.6593 44.3449L44.2493 44.7501C44.1804 44.7758 44.1079 44.7909 44.0343 44.7947ZM44.2563 39.4044C44.2213 39.3992 44.1856 39.3992 44.1506 39.4044L42.7406 39.8095C42.6928 39.8207 42.6479 39.8416 42.6089 39.8707C42.5699 39.8999 42.5375 39.9366 42.5139 39.9787C42.4904 40.0207 42.4761 40.0671 42.472 40.1148C42.468 40.1626 42.4742 40.2106 42.4903 40.2558L43.6782 44.1733C43.6898 44.2198 43.7112 44.2635 43.7411 44.3015C43.771 44.3396 43.8088 44.3711 43.8519 44.394C43.8951 44.417 43.9427 44.4309 43.9917 44.4348C44.0407 44.4388 44.09 44.4327 44.1365 44.417L45.5465 44.0153C45.5934 44.0024 45.637 43.9802 45.6746 43.9501C45.7122 43.9199 45.743 43.8825 45.765 43.8402C45.7891 43.7995 45.8043 43.7545 45.8098 43.7078C45.8152 43.6612 45.8108 43.6139 45.7968 43.569L44.6088 39.6481C44.5862 39.5752 44.5393 39.5116 44.4755 39.4674C44.4116 39.4233 44.3345 39.4011 44.2563 39.4044Z" fill="#D1D3D4"/>
<path d="M47.3972 43.8505C47.3677 43.8507 47.3386 43.8436 47.3126 43.8299C47.292 43.8194 47.2738 43.8048 47.2593 43.787C47.2447 43.7693 47.2341 43.7488 47.228 43.7269L45.9872 39.6275C45.9748 39.5943 45.9748 39.5578 45.9872 39.5245C46.2445 38.7932 46.456 37.9177 46.664 37.0731C47.1328 35.1539 47.5029 33.6398 48.3066 33.5883C48.39 33.5841 48.4734 33.5972 48.5512 33.6268C48.629 33.6564 48.6994 33.7018 48.7578 33.76C49.35 34.3333 49.35 36.3418 49.35 37.08C49.9775 36.8877 51.6695 36.3933 52.4238 36.5032C52.6671 36.5341 53.4637 37.0251 53.5342 41.9656C53.5348 42.0029 53.5227 42.0393 53.4997 42.0692C53.4767 42.099 53.4442 42.1205 53.4073 42.1304L47.4465 43.8471L47.3972 43.8505ZM46.3397 39.5829L47.517 43.466L53.1782 41.8386C53.1359 39.4353 52.8081 36.9015 52.378 36.8431C51.5461 36.7332 49.2443 37.4714 49.2055 37.4817C49.1783 37.4899 49.1494 37.4916 49.1213 37.4868C49.0933 37.482 49.0668 37.4707 49.044 37.4539C49.0213 37.4372 49.003 37.4154 48.9906 37.3903C48.9782 37.3653 48.9722 37.3378 48.9729 37.31C49.0081 36.5513 48.9905 34.4775 48.497 34.0072C48.4757 33.9821 48.4486 33.9622 48.418 33.9491C48.3874 33.936 48.3541 33.93 48.3207 33.9316C47.7744 33.966 47.3619 35.6483 46.9953 37.1521C46.8085 37.9864 46.597 38.8482 46.3397 39.5829Z" fill="#D1D3D4"/>
<path d="M58.9062 47.9293C58.485 47.9308 58.0647 47.8917 57.6513 47.8126C56.9467 47.6942 56.277 47.4281 55.6884 47.0326C55.0999 46.6372 54.6066 46.122 54.2426 45.5226C54.2315 45.5027 54.2245 45.481 54.2221 45.4585C54.2196 45.436 54.2217 45.4133 54.2282 45.3916C54.2348 45.3699 54.2457 45.3497 54.2602 45.3321C54.2748 45.3145 54.2928 45.2999 54.3131 45.2891C54.3335 45.2783 54.3559 45.2715 54.3789 45.2691C54.402 45.2667 54.4253 45.2687 54.4476 45.2751C54.4699 45.2815 54.4906 45.292 54.5087 45.3062C54.5267 45.3204 54.5417 45.3379 54.5528 45.3578C54.8924 45.9137 55.3521 46.3911 55.8998 46.7568C56.4476 47.1226 57.0705 47.3681 57.7253 47.4761C59.0579 47.6938 60.426 47.5598 61.6874 47.0882C61.7319 47.0731 61.7806 47.0759 61.8229 47.0959C61.8652 47.1158 61.8976 47.1514 61.913 47.1946C61.9285 47.2379 61.9256 47.2853 61.9051 47.3265C61.8846 47.3677 61.8482 47.3993 61.8038 47.4143C60.8742 47.7425 59.8948 47.9166 58.9062 47.9293Z" fill="#D1D3D4"/>
</svg>
