<svg width="180" height="178" viewBox="0 0 180 178" fill="none" xmlns="http://www.w3.org/2000/svg">
<g clip-path="url(#clip0)">
<path d="M180 89C180.014 100.433 177.794 111.761 173.463 122.362C173.452 122.386 173.444 122.407 173.433 122.43V122.433C170.522 129.531 166.692 136.226 162.04 142.35C161.142 143.535 160.216 144.695 159.262 145.831C158.914 146.247 158.559 146.66 158.205 147.069C156.381 149.162 154.462 151.167 152.448 153.085C151.98 153.533 151.506 153.975 151.027 154.412C150.915 154.515 150.803 154.615 150.691 154.718C148.345 156.837 145.888 158.833 143.329 160.695C141.611 161.951 139.848 163.144 138.04 164.273C137.644 164.524 137.244 164.769 136.842 165.011C136.145 165.432 135.441 165.844 134.731 166.246C133.804 166.772 132.866 167.282 131.916 167.776C131.533 167.978 131.147 168.173 130.761 168.368C130.196 168.655 129.629 168.931 129.056 169.203C128.958 169.25 128.859 169.297 128.761 169.342C128.388 169.521 128.01 169.695 127.632 169.869C122.708 172.115 117.586 173.912 112.332 175.238C112.303 175.246 112.276 175.251 112.247 175.259C111.903 175.346 111.557 175.43 111.211 175.512C110.953 175.575 110.692 175.635 110.431 175.693C110.399 175.704 110.366 175.712 110.332 175.717C109.797 175.841 109.262 175.959 108.721 176.067C108.418 176.13 108.114 176.194 107.811 176.254C107.627 176.294 107.44 176.328 107.257 176.362C107.025 176.407 106.796 176.449 106.564 176.494C106.437 176.52 106.309 176.541 106.178 176.562C105.885 176.615 105.593 176.668 105.302 176.718C104.807 176.802 104.306 176.884 103.809 176.957C103.446 177.013 103.087 177.065 102.725 177.115C102.299 177.176 101.873 177.231 101.444 177.284C101.327 177.302 101.21 177.315 101.093 177.329C100.941 177.347 100.789 177.365 100.637 177.384C100.331 177.421 100.025 177.455 99.7159 177.487C99.5561 177.505 99.399 177.521 99.2393 177.537C98.9357 177.568 98.6322 177.597 98.3286 177.623C97.9372 177.66 97.5458 177.692 97.1517 177.724C96.6724 177.76 96.1958 177.795 95.7138 177.824C95.405 177.842 95.0961 177.86 94.7845 177.876C93.991 177.918 93.1976 177.947 92.3988 177.968C92.002 177.979 91.6026 177.987 91.2032 177.992H91.1952C90.7984 177.997 90.399 178 89.9996 178C85.952 178.002 81.9089 177.734 77.8976 177.2C74.9553 176.81 72.06 176.281 69.2118 175.614C69.0973 175.588 68.9828 175.562 68.8709 175.533C68.5834 175.467 68.2984 175.396 68.0135 175.325C67.7606 175.262 67.5103 175.196 67.2573 175.13C60.738 173.452 54.4316 171.05 48.4585 167.97C48.4292 167.955 48.3973 167.939 48.368 167.923C48.1949 167.833 48.0245 167.747 47.8541 167.654C47.4786 167.46 47.105 167.261 46.7331 167.059C44.6162 165.909 42.5535 164.678 40.5449 163.368C40.0283 163.033 39.5171 162.694 39.0112 162.349C38.8487 162.238 38.689 162.127 38.5292 162.017C38.3615 161.901 38.1937 161.785 38.0286 161.669C37.5893 161.361 37.1526 161.05 36.7186 160.735C34.9212 159.428 33.1771 158.058 31.4863 156.624C25.4932 151.549 20.1974 145.719 15.7337 139.285C14.176 137.042 12.7221 134.726 11.3721 132.339C3.89068 119.094 -0.0252575 104.171 -0.000370394 89C-0.000370394 39.8473 40.2946 0 89.9996 0C139.705 0 180 39.8473 180 89Z" fill="#F54A4A"/>
<path opacity="0.2" d="M104.472 175.533C104.759 175.467 105.044 175.396 105.329 175.325C105.582 175.262 105.833 175.196 106.086 175.13C106.099 174.606 106.118 174.029 106.136 173.405C106.293 168.518 106.663 160.65 107.537 151.171C107.585 150.663 107.633 150.151 107.681 149.636C107.992 146.423 108.357 143.045 108.794 139.543C108.807 139.427 108.823 139.314 108.836 139.198C109.19 136.36 109.592 133.445 110.045 130.475C110.362 128.397 110.704 126.297 111.073 124.173C111.099 124.026 111.126 123.876 111.153 123.728C111.259 123.115 111.368 122.504 111.48 121.888C111.792 120.174 112.125 118.449 112.473 116.724C113.701 110.658 115.163 104.554 116.907 98.6162C118.679 92.4583 120.861 86.4231 123.438 80.5503C125.438 75.9881 127.82 71.5991 130.559 67.4293C130.599 67.3688 130.638 67.3109 130.678 67.2503C134.18 62.034 138.182 57.6077 142.751 54.2979L141.803 53.0182C137.426 56.1911 133.41 60.4129 129.757 65.6836C129.738 65.7099 129.723 65.7336 129.704 65.7599C126.957 69.7885 124.559 74.0394 122.536 78.4675C119.827 84.3904 117.542 90.4941 115.698 96.7335C113.951 102.532 112.385 108.813 110.998 115.579C110.511 117.962 110.046 120.404 109.603 122.904C109.528 123.331 109.454 123.757 109.379 124.187C109.379 124.192 109.377 124.2 109.377 124.205C109.262 124.863 109.153 125.522 109.041 126.188C108.764 127.865 108.503 129.529 108.258 131.18C107.88 133.724 107.538 136.224 107.233 138.679C107.132 139.49 107.034 140.295 106.94 141.094C106.807 142.221 106.681 143.333 106.562 144.43C106.394 145.957 106.241 147.452 106.102 148.914L106.062 149.317C106.04 149.549 106.019 149.781 105.998 150.01C104.917 161.54 104.578 170.854 104.472 175.533Z" fill="black"/>
<path opacity="0.2" d="M124.884 167.97C124.914 167.955 124.946 167.939 124.975 167.923C125.523 167.641 126.067 167.354 126.61 167.059C126.788 164.958 127.028 162.649 127.342 160.221C127.409 159.721 127.475 159.213 127.55 158.702C127.587 158.428 127.627 158.151 127.667 157.872C127.981 155.734 128.354 153.528 128.801 151.311C130.62 142.263 133.639 133.016 138.653 127.307C138.922 126.999 139.197 126.704 139.481 126.417C140.187 125.691 140.954 125.026 141.774 124.429L140.826 123.152C139.682 123.989 138.629 124.941 137.684 125.993C137.351 126.359 137.026 126.74 136.71 127.136C132.095 132.879 129.214 141.381 127.419 149.799C126.951 151.995 126.557 154.189 126.221 156.324C126.136 156.882 126.054 157.435 125.976 157.983C125.457 161.601 125.113 165.019 124.884 167.97Z" fill="black"/>
<path opacity="0.2" d="M151.705 54.2611C156.13 54.2611 159.717 50.714 159.717 46.3384C159.717 41.9628 156.13 38.4156 151.705 38.4156C147.281 38.4156 143.694 41.9628 143.694 46.3384C143.694 50.714 147.281 54.2611 151.705 54.2611Z" fill="black"/>
<path opacity="0.2" d="M149.125 122.462C153.55 122.462 157.137 118.915 157.137 114.539C157.137 110.163 153.55 106.616 149.125 106.616C144.701 106.616 141.114 110.163 141.114 114.539C141.114 118.915 144.701 122.462 149.125 122.462Z" fill="black"/>
<path opacity="0.2" d="M119.899 59.6462C121.597 69.1247 117.847 77.7074 117.847 77.7074C117.847 77.7074 111.342 70.9223 109.643 61.4437C107.944 51.9651 111.695 43.3824 111.695 43.3824C111.695 43.3824 118.2 50.1676 119.899 59.6462Z" fill="black"/>
<path opacity="0.2" d="M146.525 82.1462C137.382 85.4521 128.196 83.3306 128.196 83.3306C128.196 83.3306 133.832 75.8491 142.974 72.5432C152.116 69.2373 161.303 71.3588 161.303 71.3588C161.303 71.3588 155.667 78.8403 146.525 82.1462Z" fill="black"/>
<path opacity="0.2" d="M148.075 142.54C141.667 144.857 135.219 143.346 135.219 143.346C135.219 143.346 139.16 138.077 145.568 135.76C151.976 133.443 158.425 134.955 158.425 134.955C158.425 134.955 154.483 140.223 148.075 142.54Z" fill="black"/>
<path d="M117.149 141.207L117.474 141.373C117.442 141.715 117.365 141.926 117.149 141.207Z" fill="#2F2E41"/>
<path d="M117.578 141.318C117.581 141.355 117.586 141.394 117.588 141.431L117.474 141.373C117.477 141.339 117.479 141.302 117.485 141.265C117.511 140.804 117.479 140.259 117.578 141.318Z" fill="#2F2E41"/>
<path d="M82.9925 128.721C107.141 128.721 126.717 109.362 126.717 85.4824C126.717 61.6024 107.141 42.2439 82.9925 42.2439C58.8442 42.2439 39.2682 61.6024 39.2682 85.4824C39.2682 109.362 58.8442 128.721 82.9925 128.721Z" fill="#2F2E41"/>
<path d="M86.5918 126.959C101.216 126.959 113.071 115.235 113.071 100.773C113.071 86.3118 101.216 74.5884 86.5918 74.5884C71.9677 74.5884 60.1125 86.3118 60.1125 100.773C60.1125 115.235 71.9677 126.959 86.5918 126.959Z" fill="#D0CDE1"/>
<path d="M147.054 150.96L147.022 150.968L140.863 152.43L128.04 155.474L126.29 155.89L106.788 160.516L105.132 160.911L57.8183 172.139C54.6198 170.929 51.4948 169.537 48.4588 167.97C48.4295 167.955 48.3976 167.939 48.3683 167.923C48.1952 167.833 48.0248 167.747 47.8544 167.654C47.4789 167.46 47.1053 167.261 46.7334 167.059C44.6165 165.909 42.5538 164.678 40.5452 163.368C40.0286 163.033 39.5174 162.694 39.0115 162.349C38.8491 162.238 38.6893 162.127 38.5295 162.017C38.3618 161.901 38.194 161.785 38.0289 161.669C37.5896 161.361 37.1529 161.05 36.7189 160.735C41.3147 152.474 52.2585 146.984 63.2023 143.98C71.4621 141.71 73.278 134.25 73.1209 127.612C73.081 126.098 72.9512 124.588 72.7322 123.089C72.3985 120.703 71.8677 118.348 71.1452 116.048L97.626 116.922L100.358 123.146C100.283 123.83 100.259 124.518 100.286 125.206C100.494 130.311 103.681 133.613 107.614 135.743C108.125 136.02 108.65 136.278 109.182 136.518C115.631 139.417 123.223 139.614 123.223 139.614C125.534 139.361 127.869 139.405 130.17 139.743C130.729 139.827 131.272 139.928 131.799 140.046C134.877 140.726 137.785 142.013 140.349 143.83C141.329 144.519 142.255 145.278 143.121 146.102C144.661 147.527 145.985 149.163 147.054 150.96Z" fill="#D0CDE1"/>
<path d="M151.027 154.412C150.915 154.515 150.803 154.615 150.691 154.718C148.346 156.837 145.888 158.833 143.329 160.695C141.612 161.951 139.849 163.144 138.041 164.273C137.644 164.524 137.245 164.769 136.843 165.011C136.145 165.432 135.441 165.844 134.731 166.246C133.804 166.772 132.866 167.282 131.917 167.776C131.533 167.978 131.147 168.173 130.761 168.368C130.196 168.655 129.629 168.931 129.057 169.203C128.958 169.25 128.86 169.297 128.761 169.342L127.635 168.418L140.863 152.43L143.523 149.215C143.523 149.215 144.586 149.215 147.022 150.968C148.369 151.959 149.641 153.045 150.83 154.217C150.894 154.283 150.96 154.347 151.027 154.412Z" fill="#D0CDE1"/>
<path d="M150.841 154.233C150.805 154.399 150.755 154.561 150.691 154.718C148.346 156.837 145.888 158.833 143.329 160.695C141.109 161.487 138.805 162.028 136.462 162.309C136.462 162.309 136.662 163.299 136.843 165.011C136.145 165.432 135.441 165.844 134.731 166.246C133.804 166.772 132.866 167.282 131.917 167.776C131.533 167.978 131.147 168.173 130.761 168.368C130.196 168.655 129.629 168.932 129.057 169.203C128.958 169.25 128.86 169.297 128.761 169.342C128.388 169.521 128.01 169.695 127.632 169.869C122.708 172.115 117.587 173.912 112.332 175.238C112.303 175.246 112.276 175.251 112.247 175.259C111.904 175.346 111.557 175.43 111.211 175.512C110.953 175.575 110.692 175.635 110.431 175.693C110.399 175.704 110.366 175.712 110.333 175.717C109.797 175.841 109.262 175.959 108.722 176.067C108.418 176.13 108.115 176.194 107.811 176.254C107.627 176.294 107.441 176.328 107.257 176.362C107.025 176.407 106.796 176.449 106.565 176.494C106.437 176.52 106.309 176.541 106.179 176.562C105.886 176.615 105.593 176.668 105.303 176.718C104.807 176.802 104.307 176.884 103.809 176.957C103.447 177.013 103.087 177.065 102.725 177.115C102.299 177.176 101.873 177.231 101.444 177.284C101.327 177.302 101.21 177.315 101.093 177.329C100.941 177.347 100.789 177.365 100.638 177.384C100.331 177.421 100.025 177.455 99.7163 177.487C99.5565 177.505 99.3995 177.521 99.2397 177.537C98.9361 177.568 98.6326 177.597 98.329 177.623C97.9376 177.66 97.5462 177.692 97.1521 177.724C96.6728 177.76 96.1962 177.795 95.7142 177.824C95.4054 177.842 95.0965 177.86 94.7849 177.876C93.9915 177.918 93.198 177.947 92.3992 177.968C92.0024 177.979 91.603 177.987 91.2036 177.992H91.1956C90.7989 177.997 90.3995 178 90 178C85.9524 178.002 81.9093 177.734 77.898 177.2C74.9557 176.81 72.0604 176.281 69.2122 175.614C69.0977 175.588 68.9832 175.562 68.8714 175.533C68.5838 175.467 68.2989 175.396 68.014 175.325C67.761 175.262 67.5107 175.196 67.2577 175.13C60.7385 173.452 54.4321 171.05 48.4589 167.97C48.4296 167.955 48.3977 167.939 48.3684 167.923C48.1953 167.833 48.0249 167.747 47.8545 167.654C62.4702 164.287 85.5666 158.976 105.609 154.426C106.171 154.299 106.729 154.173 107.284 154.046C114.686 152.366 121.62 150.802 127.486 149.494C128.093 149.359 128.688 149.228 129.27 149.099C135.573 147.698 140.467 146.634 143.121 146.102C143.837 145.94 144.56 145.815 145.289 145.726L150.83 154.218L150.841 154.233Z" fill="#2F2E41"/>
<path d="M42.9893 67.083C50.1824 67.083 56.0136 61.3166 56.0136 54.2035C56.0136 47.0903 50.1824 41.3239 42.9893 41.3239C35.7962 41.3239 29.9651 47.0903 29.9651 54.2035C29.9651 61.3166 35.7962 67.083 42.9893 67.083Z" fill="#2F2E41"/>
<path d="M122.996 63.4031C130.189 63.4031 136.02 57.6368 136.02 50.5236C136.02 43.4104 130.189 37.644 122.996 37.644C115.802 37.644 109.971 43.4104 109.971 50.5236C109.971 57.6368 115.802 63.4031 122.996 63.4031Z" fill="#2F2E41"/>
<path d="M109.041 45.0038C109.041 41.8272 110.229 38.7628 112.376 36.3995C114.522 34.0362 117.476 32.5407 120.67 32.2004C118.851 32.004 117.011 32.1887 115.269 32.7425C113.527 33.2964 111.923 34.2069 110.56 35.4149C109.198 36.6228 108.109 38.1011 107.363 39.7532C106.617 41.4054 106.231 43.1945 106.231 45.0038C106.231 46.8132 106.617 48.6022 107.363 50.2544C108.109 51.9066 109.198 53.3848 110.56 54.5928C111.923 55.8007 113.527 56.7113 115.269 57.2651C117.011 57.819 118.851 58.0037 120.67 57.8072C117.476 57.4669 114.522 55.9715 112.376 53.6082C110.229 51.2448 109.041 48.1804 109.041 45.0038Z" fill="#2F2E41"/>
<path d="M28.4368 64.6215C26.189 62.3522 24.8685 59.3414 24.7291 56.1678C24.5897 52.9942 25.6413 49.8816 27.6818 47.4282C26.2436 48.5466 25.0598 49.9522 24.2076 51.5533C23.3554 53.1544 22.8539 54.9152 22.7358 56.7207C22.6177 58.5263 22.8856 60.3362 23.5221 62.0326C24.1586 63.7289 25.1494 65.2736 26.4299 66.566C27.7104 67.8584 29.2519 68.8695 30.954 69.5333C32.6561 70.1972 34.4805 70.499 36.3084 70.4191C38.1363 70.3391 39.9266 69.8792 41.5628 69.0693C43.1989 68.2594 44.6442 67.1177 45.8043 65.7186C43.2822 67.6859 40.1138 68.6621 36.908 68.4596C33.7023 68.2571 30.6853 66.8902 28.4368 64.6215Z" fill="#2F2E41"/>
<path d="M82.9925 65.2431C67.5787 65.2431 55.0834 72.4511 55.0834 81.3425C55.0834 85.3209 57.595 88.957 61.741 91.7659L67.1138 87.9162L65.6527 93.9473C66.2589 94.2251 66.878 94.494 67.5236 94.7425L75.5501 85.4824V96.8585C78.0112 97.2484 80.4999 97.4435 82.9925 97.4419C98.4063 97.4419 110.902 90.234 110.902 81.3425C110.902 72.4511 98.4063 65.2431 82.9925 65.2431Z" fill="#2F2E41"/>
<path d="M109.971 50.5236C109.971 50.5236 107.949 59.7232 120.589 63.4031L109.971 50.5236Z" fill="#2F2E41"/>
<path d="M55.0833 52.198C55.0833 52.198 59.7348 62.4832 45.7803 67.083L55.0833 52.198Z" fill="#2F2E41"/>
<path d="M61.9815 111.054C63.155 110.729 63.4672 108.207 62.6787 105.422C61.8902 102.637 60.2997 100.642 59.1261 100.967C57.9526 101.292 57.6404 103.814 58.4289 106.599C59.2174 109.384 60.8079 111.379 61.9815 111.054Z" fill="#D0CDE1"/>
<path d="M115.715 101.78C115.895 98.8936 115.054 96.4932 113.838 96.4192C112.622 96.3451 111.49 98.6253 111.31 101.512C111.13 104.399 111.97 106.799 113.187 106.873C114.403 106.947 115.535 104.667 115.715 101.78Z" fill="#D0CDE1"/>
</g>
<defs>
<clipPath id="clip0">
<rect width="180" height="178" fill="white"/>
</clipPath>
</defs>
</svg>
