<svg width="180" height="178" viewBox="0 0 180 178" fill="none" xmlns="http://www.w3.org/2000/svg">
<g clip-path="url(#clip0)">
<path d="M180 89C180.016 101.048 177.55 112.973 172.752 124.047L172.454 124.726C164.338 142.984 150.265 158.024 132.486 167.439C114.708 176.855 94.2492 180.104 74.3831 176.665C73.8426 176.57 73.303 176.472 72.7642 176.37C67.1973 175.303 61.746 173.713 56.4843 171.622C55.6296 171.283 54.7811 170.931 53.9388 170.567C53.3636 170.319 52.7885 170.064 52.2186 169.8C36.6309 162.656 23.4333 151.254 14.1815 136.938C4.92963 122.623 0.00915086 105.99 0 89C0 39.8472 40.295 0 90 0C139.705 0 180 39.8472 180 89Z" fill="#F54A4A"/>
<path opacity="0.2" d="M74.3831 176.665C73.8426 176.57 73.3029 176.472 72.7642 176.37C72.4127 166.283 71.2065 145.578 67.0926 123.894C64.8426 112.027 61.7192 99.8617 57.387 88.9868C55.9028 85.224 54.2075 81.5459 52.3092 77.9698C47.9316 69.7939 42.6222 62.9109 36.1837 58.2476L37.1316 56.9679C42.4864 60.8491 47.2988 66.298 51.5689 73.3144C52.8497 75.4156 54.0799 77.6573 55.2595 80.0394C56.5243 82.5883 57.7305 85.2943 58.8781 88.1574C59.6104 89.9795 60.3177 91.8648 61.0003 93.8134C63.9719 102.274 66.4979 111.927 68.5784 122.773C69.0391 125.169 69.4775 127.624 69.8938 130.137C73.1183 149.615 74.0902 167.623 74.3831 176.665Z" fill="black"/>
<path opacity="0.2" d="M53.9387 170.567C53.3635 170.319 52.7884 170.064 52.2186 169.8C51.6621 163.823 50.6396 156.408 48.7703 149.37C47.9517 146.209 46.9007 143.111 45.6257 140.101C43.4928 135.164 40.7316 130.967 37.1609 128.379L38.1088 127.102C41.8473 129.808 44.731 134.087 46.9597 139.093C49.4706 144.733 51.1455 151.297 52.2612 157.57C53.0893 162.228 53.6112 166.728 53.9387 170.567Z" fill="black"/>
<path opacity="0.2" d="M27.2294 58.2108C31.6542 58.2108 35.2411 54.6637 35.2411 50.2881C35.2411 45.9125 31.6542 42.3654 27.2294 42.3654C22.8046 42.3654 19.2177 45.9125 19.2177 50.2881C19.2177 54.6637 22.8046 58.2108 27.2294 58.2108Z" fill="black"/>
<path opacity="0.2" d="M29.8096 126.411C34.2344 126.411 37.8213 122.864 37.8213 118.489C37.8213 114.113 34.2344 110.566 29.8096 110.566C25.3848 110.566 21.7979 114.113 21.7979 118.489C21.7979 122.864 25.3848 126.411 29.8096 126.411Z" fill="black"/>
<path opacity="0.2" d="M59.0364 63.5959C57.3374 73.0744 61.0879 81.6571 61.0879 81.6571C61.0879 81.6571 67.5929 74.872 69.2918 65.3934C70.9907 55.9148 67.2403 47.3322 67.2403 47.3322C67.2403 47.3322 60.7353 54.1173 59.0364 63.5959Z" fill="black"/>
<path opacity="0.2" d="M32.4101 86.0959C41.5525 89.4018 50.7394 87.2803 50.7394 87.2803C50.7394 87.2803 45.1035 79.7988 35.961 76.4929C26.8186 73.187 17.6317 75.3086 17.6317 75.3086C17.6317 75.3086 23.2677 82.79 32.4101 86.0959Z" fill="black"/>
<path opacity="0.2" d="M30.8597 146.49C37.2679 148.807 43.7162 147.296 43.7162 147.296C43.7162 147.296 39.7749 142.027 33.3668 139.71C26.9587 137.393 20.5104 138.904 20.5104 138.904C20.5104 138.904 24.4516 144.173 30.8597 146.49Z" fill="black"/>
<path d="M89.8152 108.709C109.193 108.709 124.902 93.1744 124.902 74.0119C124.902 54.8493 109.193 39.315 89.8152 39.315C70.4374 39.315 54.7285 54.8493 54.7285 74.0119C54.7285 93.1744 70.4374 108.709 89.8152 108.709Z" fill="#D0CDE1"/>
<path d="M76.1095 100.577C76.1095 100.577 80.4953 121.178 80.4953 123.346C80.4953 125.515 101.328 135.274 101.328 135.274L119.968 132.021L126.547 112.504C126.547 112.504 115.582 96.2396 115.582 89.7339L76.1095 100.577Z" fill="#D0CDE1"/>
<path d="M172.752 124.047L172.454 124.726C164.338 142.984 150.265 158.024 132.486 167.439C114.708 176.855 94.2492 180.104 74.3831 176.665C73.8426 176.57 73.3029 176.472 72.7642 176.37C67.1973 175.303 61.746 173.713 56.4843 171.622C55.6296 171.283 54.781 170.931 53.9387 170.567C53.3636 170.319 52.7884 170.064 52.2186 169.8C47.0537 167.434 42.1277 164.588 37.5071 161.301L33.3479 149.37L35.6858 147.606L40.4946 143.975L45.6257 140.101L46.9597 139.093L67.0926 123.894L68.5784 122.773L79.0429 114.873L79.0455 114.871C79.0455 114.871 90.3621 133.105 106.81 127.683C123.257 122.262 122.898 106.716 122.898 106.716L172.752 124.047Z" fill="#2F2E41"/>
<path d="M59.3881 46.0577C59.3881 46.0577 70.528 22.1895 91.8795 27.6975C113.231 33.2056 125.299 41.4677 126.227 49.7298C127.156 57.9919 125.763 70.385 125.763 70.385C125.763 70.385 123.443 53.4018 108.589 57.0739C93.7361 60.7459 70.528 57.9919 70.528 57.9919L66.8147 91.0403C66.8147 91.0403 62.6372 85.0732 57.9956 88.7452C53.354 92.4173 44.5349 53.4018 59.3881 46.0577Z" fill="#2F2E41"/>
<path d="M56.4843 171.623C55.6296 171.283 54.7811 170.931 53.9388 170.567C53.3636 170.319 52.7885 170.064 52.2187 169.8C43.6764 165.883 35.8069 160.668 28.8959 154.344C31.3429 151.047 33.3479 149.37 33.3479 149.37H49.7956L52.2613 157.57L56.4843 171.623Z" fill="#2F2E41"/>
<path d="M158.344 122.262L172.454 124.726C168.678 133.233 163.578 141.102 157.34 148.048L158.344 122.262Z" fill="#2F2E41"/>
</g>
<defs>
<clipPath id="clip0">
<rect width="180" height="178" fill="white"/>
</clipPath>
</defs>
</svg>
